# xmcd
#
# Track frame offsets: 
#        150
#        28741
#        56413
#        71760
#        91557
#        119766
#        138667
#        167751
#
# Disc length: 2454 seconds
#
# Revision: 0
# Processed by: cddbd v1.4PL0 Copyright (c) Steve Scherf et al.
# Submitted via: ExactAudioCopy v0.90b4
#
DISCID=6e099408
DTITLE=After Midnite - Well, I Know ...
DYEAR=2002
DGENRE=R&B
TTITLE0=Well, I know ...
TTITLE1=Midnite In The City
TTITLE2=Come Together
TTITLE3=Balls Of Pleasure
TTITLE4=Tobacco Road
TTITLE5=Anytime I Hear Her Name
TTITLE6=Sympathy For The Devil
TTITLE7=Somebody´s Watching
EXTD=
EXTT0=
EXTT1=
EXTT2=
EXTT3=
EXTT4=
EXTT5=
EXTT6=
EXTT7=
PLAYORDER=
